<svg width="32" height="32" viewBox="0 0 32 32" fill="none" xmlns="http://www.w3.org/2000/svg">
<rect x="0.5" y="0.5" width="31" height="31" rx="7.5" fill="white"/>
<rect x="0.5" y="0.5" width="31" height="31" rx="7.5" stroke="#D9D9D9"/>
<path d="M12.6016 7.75C9.93848 7.75 7.75 9.93555 7.75 12.6016V19.3984C7.75 22.0615 9.93555 24.25 12.6016 24.25H19.3984C22.0615 24.25 24.25 22.0645 24.25 19.3984V12.6016C24.25 9.93848 22.0645 7.75 19.3984 7.75H12.6016ZM12.6016 9.25H19.3984C21.2529 9.25 22.75 10.7471 22.75 12.6016V19.3984C22.75 21.2529 21.2529 22.75 19.3984 22.75H12.6016C10.7471 22.75 9.25 21.2529 9.25 19.3984V12.6016C9.25 10.7471 10.7471 9.25 12.6016 9.25ZM20.4297 10.8906C20.0518 10.8906 19.75 11.1924 19.75 11.5703C19.75 11.9482 20.0518 12.25 20.4297 12.25C20.8076 12.25 21.1094 11.9482 21.1094 11.5703C21.1094 11.1924 20.8076 10.8906 20.4297 10.8906ZM16 11.5C13.5244 11.5 11.5 13.5244 11.5 16C11.5 18.4756 13.5244 20.5 16 20.5C18.4756 20.5 20.5 18.4756 20.5 16C20.5 13.5244 18.4756 11.5 16 11.5ZM16 13C17.667 13 19 14.333 19 16C19 17.667 17.667 19 16 19C14.333 19 13 17.667 13 16C13 14.333 14.333 13 16 13Z" fill="#262626"/>
</svg>
