<svg width="32" height="32" viewBox="0 0 32 32" fill="none" xmlns="http://www.w3.org/2000/svg">
<rect x="0.5" y="0.5" width="31" height="31" rx="7.5" fill="white"/>
<rect x="0.5" y="0.5" width="31" height="31" rx="7.5" stroke="#D9D9D9"/>
<path d="M24.0526 7.00163C23.8006 7.01335 23.5633 7.08659 23.3524 7.16862H23.3494C23.1356 7.25358 22.119 7.68132 20.575 8.32878C19.0311 8.97917 17.0272 9.82292 15.0379 10.6608C11.0653 12.3337 7.15999 13.9801 7.15999 13.9801L7.20686 13.9626C7.20686 13.9626 6.93733 14.0505 6.65608 14.2438C6.51252 14.3376 6.35432 14.4665 6.21663 14.6686C6.07893 14.8708 5.9676 15.1813 6.00862 15.5007C6.076 16.0426 6.42756 16.3678 6.67952 16.5466C6.9344 16.7282 7.17756 16.8132 7.17756 16.8132H7.18342L10.8455 18.0466C11.0096 18.5739 11.9617 21.7028 12.1903 22.4235C12.325 22.8542 12.4569 23.1237 12.6209 23.3288C12.7 23.4342 12.7938 23.5221 12.9051 23.5925C12.949 23.6188 12.9959 23.6393 13.0428 23.6569C13.0574 23.6657 13.0721 23.6686 13.0897 23.6716L13.0516 23.6628C13.0633 23.6657 13.0721 23.6745 13.0809 23.6774C13.1102 23.6862 13.1307 23.6891 13.1688 23.695C13.7489 23.8708 14.2147 23.5104 14.2147 23.5104L14.241 23.4899L16.4031 21.5212L20.0272 24.3014L20.1092 24.3366C20.8651 24.6676 21.6297 24.4831 22.034 24.1579C22.4412 23.8298 22.5994 23.4108 22.5994 23.4108L22.6258 23.3434L25.4266 8.99675C25.5057 8.64226 25.5262 8.3112 25.4383 7.98894C25.3504 7.66667 25.1248 7.36491 24.8524 7.20378C24.577 7.03972 24.3045 6.98991 24.0526 7.00163ZM23.9764 8.53972C23.9735 8.58659 23.9823 8.58073 23.9617 8.67155V8.68034L21.1873 22.8776C21.1756 22.8981 21.1551 22.9421 21.0994 22.986C21.0408 23.0329 20.994 23.0622 20.7508 22.9655L16.3182 19.5671L13.6405 22.0075L14.203 18.4157C14.203 18.4157 21.1463 11.944 21.4451 11.6657C21.744 11.3874 21.6444 11.3288 21.6444 11.3288C21.6649 10.9889 21.1932 11.2292 21.1932 11.2292L12.0614 16.8864L12.0584 16.8717L7.68147 15.3981V15.3952C7.67854 15.3952 7.67268 15.3923 7.66975 15.3923C7.67268 15.3923 7.69319 15.3835 7.69319 15.3835L7.71663 15.3717L7.74006 15.363C7.74006 15.363 11.6483 13.7165 15.6209 12.0436C17.6102 11.2057 19.6141 10.362 21.1551 9.71159C22.6961 9.06413 23.8358 8.58952 23.9002 8.56315C23.9617 8.53972 23.9324 8.53972 23.9764 8.53972Z" fill="#262626"/>
</svg>
