<svg width="516" height="518" viewBox="0 0 516 518" fill="none" xmlns="http://www.w3.org/2000/svg">
<path fill-rule="evenodd" clip-rule="evenodd" d="M418.812 258.5C422.166 227.419 410.549 196.253 389.303 166.22C366.311 133.716 341.199 94.4314 295.827 84.6423C251.366 75.0497 225.036 110.045 186.751 122.519C145.083 136.095 85.8148 129.412 65.1447 159.806C41.6482 194.355 46.1249 243.276 79.0936 280.819C111.162 317.339 171.046 328.027 224.281 341.026C274.068 353.183 328.744 368.882 369.295 351.679C408.847 334.9 414.908 294.684 418.812 258.5Z" stroke="#1F4155" stroke-width="3"/>
<path fill-rule="evenodd" clip-rule="evenodd" d="M102.782 354.428C84.4025 314.621 81.1502 272.09 88.1997 229.35C95.8288 183.095 102.336 127.657 143.59 107.013C184.016 86.7839 227.563 127.665 272.367 137.192C321.131 147.561 377.962 128.528 413.557 164.418C454.018 205.215 473.064 269.573 457.756 324.121C442.866 377.179 387.343 401.525 339.669 427.713C295.083 452.204 247.251 482.153 197.871 466.877C149.707 451.976 124.18 400.771 102.782 354.428Z" fill="#4CC19E"/>
<path fill-rule="evenodd" clip-rule="evenodd" d="M54.3307 275.015C58.4074 276.549 59.944 275.699 65.0183 273.55C70.51 271.224 77.0233 268.81 80.4596 262.407C83.8269 256.132 80.2825 251.058 80.3587 244.963C80.4417 238.329 84.0993 229.76 80.919 225.68C77.3039 221.041 74.5582 222.973 67.9177 226.611C61.4585 230.149 53.1039 235.774 48.8661 243.236C44.9028 250.216 42.6406 256.429 43.1032 263.018C43.5544 269.445 49.5846 273.228 54.3307 275.015Z" fill="#F17D4B"/>
<path fill-rule="evenodd" clip-rule="evenodd" d="M479.77 204.23C473.997 201.798 472.581 201.797 467.555 201.371C462.116 200.91 455.481 200.143 454.71 203.026C453.954 205.851 460.963 210.362 464.113 214.241C467.542 218.463 467.654 222.655 473.691 226.4C480.554 230.658 482.864 230.395 489.003 230.424C494.973 230.451 502.138 229.815 503.32 226.538C504.425 223.473 503.87 220.295 499.802 215.908C495.834 211.629 486.491 207.062 479.77 204.23Z" fill="#F17D4B"/>
</svg>
