<svg width="580" height="473" viewBox="0 0 580 473" fill="none" xmlns="http://www.w3.org/2000/svg">
<path fill-rule="evenodd" clip-rule="evenodd" d="M45.0843 213.067C56.8003 196.852 72.22 185.712 89.543 178.413C108.291 170.513 130.293 160.05 145.364 170.813C160.132 181.359 152.469 207.326 156.822 226.46C161.559 247.285 178.783 264.303 171.589 286.105C163.411 310.887 142.579 333.075 119.353 340.009C96.7606 346.753 77.7702 331.467 59.4776 319.572C42.3696 308.449 22.6343 297.371 19.634 275.17C16.7075 253.515 31.4444 231.945 45.0843 213.067Z" stroke="#F17D4B" stroke-width="3" stroke-dasharray="12 12"/>
<g clip-path="url(#clip0_41_4144)">
<path fill-rule="evenodd" clip-rule="evenodd" d="M413.313 197.5C416.666 166.419 405.049 135.253 383.804 105.22C360.811 72.7164 335.7 33.4314 290.327 23.6423C245.866 14.0497 219.536 49.0446 181.251 61.5188C139.584 75.0954 80.315 68.4121 59.645 98.8056C36.1484 133.355 40.6251 182.276 73.5938 219.819C105.663 256.339 165.546 267.027 218.781 280.026C268.568 292.183 323.244 307.882 363.795 290.679C403.347 273.9 409.409 233.684 413.313 197.5Z" stroke="#FFC56D" stroke-width="3"/>
<mask id="mask0_41_4144" style="mask-type:alpha" maskUnits="userSpaceOnUse" x="81" y="72" width="406" height="375">
<path fill-rule="evenodd" clip-rule="evenodd" d="M449.5 170.395C428.518 136.028 395.124 112.596 354.655 97.4164C310.857 80.9883 260.13 59.1601 215.229 82.5216C171.229 105.414 176.251 160.715 154.207 201.707C130.214 246.32 76.2244 283.101 82.3987 329.513C89.4173 382.271 130.488 429.181 186.365 443.437C240.717 457.304 298.273 424.181 352.111 398.324C402.463 374.142 459.553 349.996 479.854 302.484C499.655 256.14 473.928 210.405 449.5 170.395Z" fill="#BB3A90"/>
</mask>
<g mask="url(#mask0_41_4144)">
<rect x="74.5" y="28" width="555" height="529" fill="#4CC19E"/>
</g>
</g>
<defs>
<clipPath id="clip0_41_4144">
<rect x="39.5" width="540" height="473" rx="16" fill="white"/>
</clipPath>
</defs>
</svg>
