<svg width="33" height="33" viewBox="0 0 33 33" fill="none" xmlns="http://www.w3.org/2000/svg">
<path d="M12.6963 10.9884C12.6963 10.3299 12.8923 9.68614 13.2595 9.13862C13.6267 8.59109 14.1486 8.16435 14.7592 7.91235C15.3699 7.66035 16.0418 7.59442 16.69 7.72288C17.3383 7.85135 17.9337 8.16845 18.4011 8.63409C18.8685 9.09972 19.1867 9.69297 19.3157 10.3388C19.4446 10.9847 19.3784 11.6541 19.1255 12.2625C18.8726 12.8709 18.4442 13.3909 17.8947 13.7567C17.3451 14.1226 16.699 14.3178 16.0381 14.3178V15.9825M19.7976 27.6356L17.3748 30.8541C16.7065 31.742 15.3697 31.742 14.7014 30.8541L12.2786 27.6356H7.6836C3.99235 27.6356 1 24.6543 1 20.9767V7.65891C1 3.9813 3.99235 1 7.6836 1H24.3926C28.0838 1 31.0762 3.9813 31.0762 7.65891V20.9767C31.0762 24.6543 28.0838 27.6356 24.3926 27.6356H19.7976Z" stroke="#38AE8A" stroke-width="2" stroke-linecap="round" stroke-linejoin="round"/>
<ellipse cx="16.0471" cy="20.9763" rx="1.6709" ry="1.66473" fill="#38AE8A"/>
</svg>
