<svg width="1440" height="185" viewBox="0 0 1440 185" fill="none" xmlns="http://www.w3.org/2000/svg">
<path d="M0 80.335L40 73.3355C80 66.5977 160 52.2063 240 62.869C320 73.1393 400 108.464 480 97.801C560 87.5307 640 31.2733 720 10.5365C800 -10.5927 880 3.7987 960 21.003C1040 38.469 1120 59.402 1200 73.3355C1280 87.5307 1360 94.0723 1400 97.801L1440 101.268V185H1400C1360 185 1280 185 1200 185C1120 185 1040 185 960 185C880 185 800 185 720 185C640 185 560 185 480 185C400 185 320 185 240 185C160 185 80 185 40 185H0V80.335Z" fill="#EEF6F6"/>
</svg>
