<svg width="1440" height="179" viewBox="0 0 1440 179" fill="none" xmlns="http://www.w3.org/2000/svg">
<path d="M0 75.65L40 84.6547C80 93.3228 160 111.837 240 98.1197C320 84.9072 400 39.4628 480 53.1803C560 66.3928 640 138.767 720 165.445C800 192.627 880 174.113 960 151.98C1040 129.51 1120 102.58 1200 84.6547C1280 66.3928 1360 57.9772 1400 53.1803L1440 48.72V-59.0001H1400C1360 -59.0001 1280 -59.0001 1200 -59.0001C1120 -59.0001 1040 -59.0001 960 -59.0001C880 -59.0001 800 -59.0001 720 -59.0001C640 -59.0001 560 -59.0001 480 -59.0001C400 -59.0001 320 -59.0001 240 -59.0001C160 -59.0001 80 -59.0001 40 -59.0001H0V75.65Z" fill="#FEFFFF"/>
</svg>
