<svg width="1439" height="283" viewBox="0 0 1439 283" fill="none" xmlns="http://www.w3.org/2000/svg">
<path d="M0.5 122.891L40.4444 112.184C80.3889 101.876 160.278 79.8615 240.167 96.1726C320.056 111.883 399.944 165.92 479.833 149.609C559.722 133.898 639.611 47.8396 719.5 16.118C799.389 -16.204 879.278 5.81099 959.167 32.1289C1039.06 58.8472 1118.94 90.869 1198.83 112.184C1278.72 133.898 1358.61 143.905 1398.56 149.609L1438.5 154.913V283H1398.56C1358.61 283 1278.72 283 1198.83 283C1118.94 283 1039.06 283 959.167 283C879.278 283 799.389 283 719.5 283C639.611 283 559.722 283 479.833 283C399.944 283 320.056 283 240.167 283C160.278 283 80.3889 283 40.4444 283H0.5V122.891Z" fill="white"/>
</svg>
