<svg width="74" height="8" viewBox="0 0 74 8" fill="none" xmlns="http://www.w3.org/2000/svg">
<path d="M0.646446 3.64645C0.451187 3.84171 0.451187 4.15829 0.646446 4.35355L3.82843 7.53553C4.02369 7.7308 4.34027 7.7308 4.53554 7.53553C4.7308 7.34027 4.7308 7.02369 4.53554 6.82843L1.70711 4L4.53554 1.17157C4.7308 0.976311 4.7308 0.659728 4.53554 0.464466C4.34027 0.269204 4.02369 0.269204 3.82843 0.464466L0.646446 3.64645ZM74 3.5H71.9722V4.5H74V3.5ZM67.9167 3.5H63.8611V4.5H67.9167V3.5ZM59.8056 3.5H55.75V4.5H59.8056V3.5ZM51.6944 3.5H47.6389V4.5H51.6944V3.5ZM43.5833 3.5H39.5278V4.5H43.5833V3.5ZM35.4722 3.5H31.4167V4.5H35.4722V3.5ZM27.3611 3.5H23.3055V4.5H27.3611V3.5ZM19.25 3.5H15.1944V4.5H19.25V3.5ZM11.1389 3.5H7.08332V4.5H11.1389V3.5ZM3.02776 3.5H1V4.5H3.02776V3.5ZM0.646446 3.64645C0.451187 3.84171 0.451187 4.15829 0.646446 4.35355L3.82843 7.53553C4.02369 7.7308 4.34027 7.7308 4.53554 7.53553C4.7308 7.34027 4.7308 7.02369 4.53554 6.82843L1.70711 4L4.53554 1.17157C4.7308 0.976311 4.7308 0.659728 4.53554 0.464466C4.34027 0.269204 4.02369 0.269204 3.82843 0.464466L0.646446 3.64645ZM74 3.5H71.9722V4.5H74V3.5ZM67.9167 3.5H63.8611V4.5H67.9167V3.5ZM59.8056 3.5H55.75V4.5H59.8056V3.5ZM51.6944 3.5H47.6389V4.5H51.6944V3.5ZM43.5833 3.5H39.5278V4.5H43.5833V3.5ZM35.4722 3.5H31.4167V4.5H35.4722V3.5ZM27.3611 3.5H23.3055V4.5H27.3611V3.5ZM19.25 3.5H15.1944V4.5H19.25V3.5ZM11.1389 3.5H7.08332V4.5H11.1389V3.5ZM3.02776 3.5H1V4.5H3.02776V3.5Z" fill="#A0A0A0"/>
</svg>
