<svg width="40" height="40" viewBox="0 0 40 40" fill="none" xmlns="http://www.w3.org/2000/svg">
<path fill-rule="evenodd" clip-rule="evenodd" d="M7.97305 27.3906C6.54738 24.3142 6.2951 21.0274 6.84191 17.7244C7.43369 14.1498 7.93842 9.8654 11.1384 8.27003C14.2742 6.7067 17.652 9.86608 21.1274 10.6023C24.9098 11.4037 29.3181 9.93271 32.0791 12.7063C35.2176 15.8592 36.6949 20.8329 35.5076 25.0484C34.3526 29.1488 30.0457 31.0303 26.3478 33.0541C22.8893 34.9468 19.1791 37.2613 15.3489 36.0807C11.6129 34.9292 9.63284 30.972 7.97305 27.3906Z" fill="url(#paint0_linear_699_6894)"/>
<path d="M18.502 18.7679C18.502 18.2513 18.6558 17.7464 18.9438 17.3169C19.2319 16.8874 19.6413 16.5526 20.1203 16.355C20.5993 16.1573 21.1263 16.1056 21.6348 16.2064C22.1433 16.3071 22.6104 16.5559 22.977 16.9211C23.3437 17.2864 23.5933 17.7517 23.6945 18.2584C23.7956 18.765 23.7437 19.2901 23.5453 19.7673C23.3469 20.2446 23.0109 20.6525 22.5798 20.9394C22.1487 21.2264 21.6419 21.3796 21.1234 21.3796V22.6855M24.0725 31.8265L22.172 34.3511C21.6477 35.0476 20.5992 35.0476 20.0749 34.3511L18.1744 31.8265H14.5699C11.6744 31.8265 9.32715 29.4879 9.32715 26.603V16.1562C9.32715 13.2713 11.6744 10.9327 14.5699 10.9327H27.6769C30.5724 10.9327 32.9197 13.2713 32.9197 16.1562V26.603C32.9197 29.4879 30.5724 31.8265 27.6769 31.8265H24.0725Z" stroke="#41A486" stroke-width="2" stroke-linecap="round" stroke-linejoin="round"/>
<ellipse cx="21.131" cy="26.6026" rx="1.3107" ry="1.30586" fill="#41A486"/>
<defs>
<linearGradient id="paint0_linear_699_6894" x1="18.0286" y1="36.2823" x2="20.1761" y2="4.66885" gradientUnits="userSpaceOnUse">
<stop stop-color="#2C96AB" stop-opacity="0.4"/>
<stop offset="1" stop-color="#64D57C" stop-opacity="0.18"/>
</linearGradient>
</defs>
</svg>
