<svg width="40" height="40" viewBox="0 0 40 40" fill="none" xmlns="http://www.w3.org/2000/svg">
<path fill-rule="evenodd" clip-rule="evenodd" d="M28.7867 30.6133C26.0012 32.4099 22.8528 33.1015 19.5804 33.0233C16.0388 32.9387 11.8219 33.0348 9.84335 30.1605C7.90452 27.3439 8.89701 21.5772 9.13881 18.1192C9.40198 14.3555 8.98891 12.3695 11.3003 9.32398C13.9278 5.86206 18.5435 3.75702 22.7863 4.32979C26.9132 4.88693 29.3189 8.79165 31.7798 12.0887C34.0813 15.1722 36.8254 18.4414 36.2015 22.3029C35.5929 26.0694 32.0296 28.5217 28.7867 30.6133Z" fill="url(#paint0_linear_699_6897)"/>
<path d="M30.8304 10.8474L11.3846 16.9347C10.547 17.1969 10.4293 18.3337 11.1954 18.7619L18.7249 22.971M30.8304 10.8474L24.5472 30.2971C24.2757 31.1374 23.128 31.2391 22.713 30.4598L18.7249 22.971M30.8304 10.8474L18.7249 22.971" stroke="#41A486" stroke-width="2" stroke-linecap="round" stroke-linejoin="round"/>
<defs>
<linearGradient id="paint0_linear_699_6897" x1="36.0333" y1="19.6865" x2="5.12966" y2="21.8973" gradientUnits="userSpaceOnUse">
<stop stop-color="#2C96AB" stop-opacity="0.26"/>
<stop offset="1" stop-color="#64D57C" stop-opacity="0.35"/>
</linearGradient>
</defs>
</svg>
